<?xml version="1.0" encoding="UTF-8" standalone="no"?>
<!-- Created with Inkscape (http://www.inkscape.org/) -->

<svg
   width="121.94482mm"
   height="177.44115mm"
   viewBox="0 0 121.94483 177.44115"
   version="1.1"
   id="svg5"
   xml:space="preserve"
   inkscape:export-filename="bitmap.svg"
   inkscape:export-xdpi="96"
   inkscape:export-ydpi="96"
   xmlns:inkscape="http://www.inkscape.org/namespaces/inkscape"
   xmlns:sodipodi="http://sodipodi.sourceforge.net/DTD/sodipodi-0.dtd"
   xmlns="http://www.w3.org/2000/svg"
   xmlns:svg="http://www.w3.org/2000/svg"><sodipodi:namedview
     id="namedview7"
     pagecolor="#505050"
     bordercolor="#eeeeee"
     borderopacity="1"
     inkscape:showpageshadow="0"
     inkscape:pageopacity="0"
     inkscape:pagecheckerboard="0"
     inkscape:deskcolor="#505050"
     inkscape:document-units="mm"
     showgrid="false" /><defs
     id="defs2" /><g
     inkscape:label="Capa 1"
     inkscape:groupmode="layer"
     id="layer1"
     transform="translate(3.3316422,-51.347063)"><path
       style="fill:#1e335e;stroke-width:0.352778"
       d="m 16.43528,228.06702 c -1.23603,-0.79189 -1.15287,-0.53818 -3.11687,-9.50939 -1.4702,-6.71561 -1.70928,-7.40776 -2.55945,-7.40989 -1.04522,-0.002 -8.26824,-2.62599 -10.3303,-3.75193 l -1.93629,-1.05727 -0.10054,-3.59184 c -0.0553,-1.97551 -0.0312,-3.59184 0.0536,-3.59184 0.0848,0 1.79688,0.69999 3.8047,1.55554 2.00783,0.85555 4.52372,1.80512 5.59088,2.11017 2.59448,0.74163 7.08421,1.20219 9.76665,1.00186 1.76365,-0.13171 2.71043,0.0239 4.93889,0.81176 2.47788,0.87603 3.23904,0.97608 7.51946,0.98833 6.42807,0.0184 12.02243,-1.23368 17.56319,-3.93078 2.77318,-1.34992 6.69126,-4.81806 8.2562,-7.30807 1.28482,-2.04432 2.36312,-5.16369 2.47851,-7.17001 l 0.10071,-1.75108 2.2872,-0.24631 c 4.18918,-0.45115 7.16026,-2.55081 9.0368,-6.38631 1.863,-3.80785 2.40645,-9.52984 1.36987,-14.42358 -0.28767,-1.35812 -0.52304,-2.55545 -0.52304,-2.66073 0,-0.10528 0.99219,-0.76547 2.20486,-1.46709 3.69639,-2.13863 7.96043,-2.53526 12.4881,-1.16161 3.37028,1.0225 3.42817,0.98481 4.47344,-2.91279 1.62835,-6.07171 2.09474,-10.43682 1.91292,-17.90347 -0.12512,-5.13795 -0.34805,-7.56248 -0.95492,-10.38526 C 87.87902,114.51554 80.26748,101.84044 69.95438,93.269129 68.00468,91.648711 65.97061,90.084791 65.43424,89.793749 64.89787,89.502708 63.94299,88.896071 63.31229,88.445666 59.77296,85.918105 50.48994,81.927261 45.14915,80.637194 36.66963,78.588964 27.14116,78.349948 19.1299,79.984517 c -2.6301,0.53663 -2.88934,0.892225 -0.83631,1.147143 10.97536,1.362775 17.25699,2.962186 24.29603,6.186196 4.88267,2.23635 12.60878,6.86369 14.95361,8.956051 1.15314,1.028978 2.9691,5.095453 3.87469,8.676573 1.23298,4.87578 1.26482,4.83631 -2.26388,2.80581 -1.6581,-0.95412 -3.08447,-1.73476 -3.16969,-1.73476 -0.0852,0 -0.91141,-0.46297 -1.83596,-1.02881 -2.06115,-1.26147 -9.55581,-4.55466 -13.14627,-5.776544 C 30.94547,95.793769 22.52461,94.390814 7.66462,93.661986 3.00795,93.433591 -1.00049,93.189161 -1.24302,93.11881 -1.58196,93.02049 -1.68399,90.753848 -1.68399,83.322706 v -9.668188 l 3.43958,-1.258813 c 1.89177,-0.692347 4.86833,-1.698873 6.61458,-2.236723 1.74625,-0.53785 3.2106,-0.992636 3.25411,-1.010635 0.0435,-0.018 0.84939,-3.462194 1.79083,-7.653766 0.94145,-4.191573 1.97591,-8.024242 2.29881,-8.517044 0.33143,-0.505832 1.16461,-1.056387 1.91333,-1.264316 1.72223,-0.478278 23.10447,-0.492425 24.81804,-0.01642 0.80787,0.224415 1.41384,0.67464 1.67271,1.242808 0.22326,0.490003 1.12838,4.101078 2.01138,8.024611 0.883,3.923533 1.68255,7.39184 1.77677,7.707348 0.10527,0.352494 1.01754,0.803585 2.36628,1.170064 1.20723,0.328027 3.28735,1.004531 4.62249,1.503343 l 2.42752,0.906932 1.14237,-1.195051 c 0.6283,-0.657278 2.38655,-2.3063 3.90723,-3.664495 1.52068,-1.358194 3.75991,-3.382257 4.97608,-4.497916 1.61796,-1.484255 2.48274,-2.028472 3.2233,-2.028472 1.13378,0 2.95464,1.182009 12.90682,8.378472 1.67704,1.212673 3.11495,2.204861 3.19536,2.204861 0.0804,0 1.42591,0.964286 2.98999,2.142857 1.77153,1.334885 2.92637,2.471898 3.06281,3.015521 0.25145,1.001844 -0.2211,2.296652 -3.58921,9.834677 -2.34738,5.253573 -3.0005,7.231944 -2.38748,7.231944 0.17564,0 1.18584,1.215362 2.2449,2.700807 1.05906,1.485441 2.24306,3.064389 2.63112,3.50877 l 0.70556,0.807968 5.64444,-0.68831 c 9.65401,-1.177247 10.81481,-1.222974 11.74853,-0.462805 0.60919,0.495955 1.77564,3.529245 4.66302,12.125965 2.11783,6.3055 3.85568,12.05178 3.86189,12.76951 0.0132,1.53007 -0.58661,2.06589 -5.24905,4.68886 -1.632,0.91813 -3.14013,1.81793 -3.35139,1.99957 -0.42642,0.36663 -2.08172,1.31219 -4.33963,2.47893 -0.81734,0.42235 -1.53937,0.93761 -1.60452,1.14502 -0.0652,0.20741 -0.0563,2.52789 0.0196,5.15663 l 0.13811,4.77952 1.87925,1.04131 c 11.0306,6.11217 12.87164,7.40978 12.87164,9.07228 0,0.47826 -0.77948,3.31195 -1.73219,6.29708 -0.9527,2.98513 -2.56765,8.0781 -3.58877,11.31772 -2.14201,6.79577 -2.72633,7.69235 -5.01207,7.69057 -1.34013,-0.001 -9.92981,-0.75507 -14.05834,-1.23409 l -1.63721,-0.18995 -1.79919,2.74107 c -0.98955,1.50759 -2.21733,3.25635 -2.7284,3.88613 l -0.9292,1.14505 0.77973,1.81255 c 0.42885,0.99689 1.22982,2.78349 1.77993,3.97022 4.34405,9.37128 4.49359,9.92361 3.14934,11.63254 -0.40103,0.50983 -2.81483,2.47593 -5.364,4.36911 -2.54916,1.89318 -6.70573,4.98868 -9.23682,6.8789 -4.85886,3.62859 -6.31993,4.26338 -7.69034,3.34121 -0.43571,-0.2932 -3.31907,-2.77815 -6.40748,-5.52211 -3.08841,-2.74396 -5.78716,-4.94281 -5.99722,-4.88633 -0.21007,0.0565 -2.26602,0.73173 -4.56879,1.50055 -3.10104,1.03534 -4.26028,1.58428 -4.46999,2.11667 -0.15573,0.39534 -0.93608,3.89179 -1.73412,7.76988 -1.34155,6.51934 -1.5351,7.13788 -2.56657,8.20209 l -1.11559,1.151 -13.07178,-0.006 c -12.4869,-0.006 -13.1213,-0.0377 -14.17885,-0.71523 z m 11.04024,-27.50387 c -1.32774,-0.16391 -2.49719,-0.38112 -2.59876,-0.4827 -0.34817,-0.34817 -0.77208,-7.80544 -0.78459,-13.80198 -0.0346,-16.58465 2.25608,-33.03704 5.84947,-42.01317 0.98915,-2.47085 1.22204,-2.58847 3.74031,-1.88911 l 1.32292,0.36739 v 5.95511 c 0,3.27531 0.17172,7.1898 0.38162,8.69886 0.95287,6.8509 3.54516,13.65677 7.01825,18.42593 2.7582,3.78749 9.55237,9.57304 11.24194,9.57304 0.39791,0 0.46233,0.35916 0.30057,1.6757 -0.72479,5.89888 -6.76287,11.07814 -15.06183,12.91956 -3.03174,0.6727 -8.40815,0.94193 -11.4099,0.57137 z M 10.28053,198.0916 c -3.1463,-0.3769 -7.64349,-1.67354 -8.99362,-2.59306 -2.02149,-1.37676 -3.88549,-3.25878 -4.35842,-4.40054 -0.42499,-1.02601 -0.37882,-1.32632 0.51135,-3.32646 3.15027,-7.0784 10.30104,-20.43529 14.30309,-26.71668 0.55629,-0.87313 1.25629,-2.01809 1.55555,-2.54437 0.84788,-1.49107 6.08377,-8.93253 8.75903,-12.44869 1.32863,-1.74625 2.74531,-3.61156 3.14818,-4.14513 0.71305,-0.94441 1.45005,-1.17364 2.49013,-0.77453 0.41156,0.15793 0.17889,1.09239 -1.20777,4.8507 -1.81756,4.92618 -2.31075,6.51228 -3.69621,11.88702 -2.61149,10.13093 -4.02568,20.74276 -4.65432,34.925 l -0.24238,5.46805 -2.64583,0.0485 c -1.45521,0.0267 -3.69116,-0.0767 -4.96878,-0.22979 z M 57.059,180.98421 c -9.69407,-3.98477 -17.81997,-15.79866 -20.10926,-29.23598 -0.50183,-2.94555 -0.74978,-9.01865 -0.35198,-8.62085 0.1,0.1 0.42397,1.1116 0.71997,2.24803 1.4125,5.42294 5.58852,11.42612 10.51934,15.12196 2.29669,1.72145 6.57436,3.69078 9.00689,4.14654 2.57601,0.48264 7.60111,0.18574 9.356,-0.55278 0.98638,-0.4151 1.4944,-0.474 1.76389,-0.20451 0.69679,0.69679 0.44632,6.28888 -0.40248,8.98629 -1.51238,4.80619 -5.01698,9.0105 -7.4917,8.98746 -0.49474,-0.005 -1.84954,-0.39888 -3.01067,-0.87616 z m -58.62123,-7.3683 c -1.31751,-1.50353 -2.10782,-11.44594 -1.20836,-15.20164 0.39557,-1.65171 2.05583,-4.76572 2.54163,-4.76711 0.29377,-7.1e-4 7.76204,-4.95398 8.37133,-5.55207 0.26277,-0.25795 1.1359,-0.80255 1.94027,-1.21024 0.80438,-0.40767 2.0975,-1.17503 2.87361,-1.70523 4.46369,-3.04936 7.97078,-4.98097 8.85113,-4.87496 0.92741,0.11168 0.91853,0.13214 -0.97723,2.25249 -2.60572,2.91442 -6.63917,8.11058 -6.63917,8.55303 0,0.19849 -0.13732,0.4138 -0.30516,0.47848 -0.42329,0.16311 -5.09865,7.25035 -10.25921,15.55161 -2.38223,3.83205 -4.4326,6.96133 -4.55639,6.95395 -0.12379,-0.007 -0.40839,-0.22262 -0.63245,-0.47831 z m 55.94948,-12.64078 c -6.81843,-2.38821 -13.02128,-8.76182 -15.47891,-15.90505 -1.07401,-3.12166 -0.051,-2.54276 1.68008,0.95074 2.77226,5.59465 7.69224,9.01522 13.48787,9.3773 2.62318,0.16389 3.17009,0.31503 4.16187,1.15012 1.25307,1.05511 4.10879,2.03717 5.92383,2.03717 3.2288,0 -1.6682,2.79714 -5.34462,3.05282 -1.58885,0.1105 -2.69356,-0.0549 -4.43012,-0.6631 z m 0.37089,-8.011 c -2.98034,-0.90658 -5.28066,-2.90643 -6.7304,-5.85128 -1.89077,-3.84069 -1.73732,-7.68478 0.47501,-11.8997 1.07258,-2.04348 3.74103,-4.86358 4.5741,-4.83405 0.24687,0.009 0.9251,0.23399 1.50718,0.50052 l 1.05834,0.4846 -0.97014,0.0286 c -1.46377,0.0432 -1.21494,0.99387 0.37199,1.42119 3.42168,0.92136 3.57716,0.91032 3.81339,-0.27084 0.14955,-0.74773 0.44886,-1.11645 0.96653,-1.19063 0.41245,-0.0591 0.80286,-0.38527 0.86757,-0.72482 0.0996,-0.52284 -0.16986,-0.62147 -1.76028,-0.6442 -1.03287,-0.0148 -2.41893,-0.22243 -3.08013,-0.46148 l -1.20217,-0.43465 1.20217,-0.70922 c 1.31466,-0.77557 4.00093,-1.5428 5.40174,-1.5428 0.74955,0 0.94893,-0.2345 1.27474,-1.49931 0.21242,-0.82461 0.5449,-2.00479 0.73885,-2.62261 l 0.35262,-1.1233 2.28142,0.85872 c 1.25478,0.4723 2.37736,0.85872 2.49463,0.85872 0.11727,0 0.13582,0.80558 0.0412,1.79017 -0.22379,2.32907 -1.19348,3.6476 -2.77486,3.77312 -2.51881,0.19991 -2.87663,0.38877 -2.69091,1.42025 0.0945,0.52468 0.80217,2.46209 1.57266,4.30535 2.25778,5.40134 2.68653,8.39879 1.35894,9.50059 -0.24992,0.20741 -1.44088,0.48022 -2.64656,0.60624 l -2.19216,0.22913 0.0925,1.50363 c 0.0957,1.55618 -0.44923,2.6243 -1.33885,2.6243 -0.36036,0 -0.47215,0.36131 -0.39777,1.28552 0.0963,1.19658 -0.004,1.34303 -1.45133,2.11667 -1.66143,0.88814 -1.84481,0.91679 -3.20999,0.50152 z m -56.20698,-2.72779 c -0.12935,-0.12935 -0.23518,-2.41179 -0.23518,-5.07208 0,-4.07253 0.0924,-4.91341 0.58437,-5.32107 0.46227,-0.38299 2.28678,-0.47346 8.73125,-0.43297 4.48078,0.0281 8.57361,0.18691 9.09516,0.35278 0.87766,0.27912 0.6166,0.47239 -3.50468,2.59464 -3.7823,1.94769 -9.53723,5.23317 -13.08594,7.47074 -1.08294,0.68283 -1.26361,0.72933 -1.58498,0.40796 z m 46.09967,-1.6169 c -1.54701,-1.68074 -3.29698,-4.19564 -3.90856,-5.61701 -0.366,-0.85065 -0.31283,-1.00138 0.54446,-1.54341 0.52255,-0.33039 1.22436,-0.93804 1.5596,-1.35035 0.5958,-0.73277 0.60969,-0.7088 0.61736,1.06528 0.01,2.22829 1.11584,5.93024 2.28837,7.65806 1.18069,1.73983 0.59107,1.62602 -1.10123,-0.21257 z m -8.81104,-9.4079 c -0.60794,-0.3707 -1.36201,-1.04043 -1.6757,-1.48829 -1.37235,-1.95931 -0.0992,-5.26977 2.30812,-6.00174 1.67514,-0.50933 2.99358,-0.15583 4.18809,1.12289 1.78169,1.9073 1.51652,4.22871 -0.69564,6.09012 -1.33418,1.12264 -2.59881,1.20757 -4.12487,0.27702 z m 3.45883,-2.02386 c 1.40959,-1.27567 0.37757,-3.64949 -1.58663,-3.64949 -1.36733,0 -2.35435,0.9019 -2.35435,2.15134 0,1.78644 2.5509,2.75616 3.94098,1.49815 z m -2.88264,-1.53282 c 0,-0.57117 0.23518,-0.70556 1.23472,-0.70556 0.99954,0 1.23472,0.13439 1.23472,0.70556 0,0.57116 -0.23518,0.70556 -1.23472,0.70556 -0.99954,0 -1.23472,-0.1344 -1.23472,-0.70556 z m -7.9375,3.32561 c -5.85714,-1.12859 -14.87015,-1.90834 -22.09361,-1.91141 -8.37109,-0.004 -8.24528,0.0429 -8.24528,-3.04332 0,-2.78581 0.22748,-2.90984 6.56315,-3.57867 5.54085,-0.58493 27.87445,-0.86526 28.38344,-0.35627 0.13133,0.13134 -0.0219,0.49952 -0.34059,0.81818 -1.27826,1.27826 -1.69956,2.66737 -1.53585,5.06407 0.0874,1.2802 0.27973,2.60545 0.4273,2.945 0.31373,0.72186 0.26842,0.72276 -3.15856,0.0624 z m 50.27083,-3.66986 c 0,-0.18934 0.31691,-0.86403 0.70424,-1.49931 0.87713,-1.43862 0.92992,-4.10615 0.11524,-5.82296 -1.3484,-2.84155 -5.81536,-5.7485 -12.40664,-8.07384 -2.22603,-0.78531 -2.82901,-1.13697 -2.65052,-1.54575 0.12708,-0.29104 0.30535,-2.54205 0.39614,-5.00224 0.17289,-4.68458 -0.30628,-8.00828 -1.6793,-11.64809 l -0.62515,-1.65727 2.16397,0.81459 c 3.99608,1.50426 9.24797,4.39426 11.06499,6.08883 0.24408,0.22762 0.80653,0.70387 1.2499,1.05833 1.34941,1.0788 4.45575,5.01133 5.34559,6.76735 3.24265,6.39904 3.31857,13.91019 0.18373,18.17703 -1.3542,1.84322 -3.86219,3.3649 -3.86219,2.34333 z m -34.69487,-2.12109 c -0.13667,-0.68334 -0.84804,-1.77318 -1.73887,-2.66402 -2.02008,-2.02007 -4.1937,-2.62062 -10.57984,-2.9231 l -5.02114,-0.23782 1.68017,-0.98763 c 2.42779,-1.4271 5.71671,-2.58926 9.29999,-3.28622 4.51389,-0.87797 12.25743,-0.79168 16.86506,0.18793 1.92695,0.40968 3.55706,0.79839 3.62247,0.8638 0.0654,0.0654 -0.93504,0.37901 -2.22322,0.6969 -1.28817,0.31789 -3.0735,0.93673 -3.96738,1.37521 -1.996,0.9791 -6.05498,4.89452 -7.00513,6.75736 l -0.70083,1.37402 z m -45.42842,-5.5126 c -0.58819,-1.44493 -0.61323,-8.33467 -0.0328,-9.03777 0.40791,-0.49416 0.76321,-0.46332 3.52777,0.3063 9.61428,2.67649 20.3367,5.14964 23.83317,5.49717 0.96295,0.0957 0.91739,0.16023 -1.12929,1.59905 l -2.13272,1.4993 -3.45682,0.007 c -3.7647,0.007 -14.34451,0.54771 -17.94436,0.91652 -2.23504,0.22899 -2.25342,0.22356 -2.66492,-0.78731 z m 27.20662,-5.61659 C 21.46648,121.371 9.5122,118.25211 6.33942,116.97453 5.9041,116.79923 4.0777,116.2219 2.28077,115.69157 c -1.79694,-0.53033 -3.43611,-1.16781 -3.6426,-1.41662 -0.48343,-0.5825 -0.57542,-4.26075 -0.118,-4.71817 0.46621,-0.46621 15.93645,2.3328 24.80945,4.48875 l 4.02336,0.97759 1.03705,1.9374 c 0.57038,1.06557 1.57992,2.64101 2.24343,3.50099 1.7653,2.28803 1.05753,2.52373 -4.80082,1.59882 z m 32.87849,-0.56608 c -3.56066,-1.17931 -9.37115,-1.81483 -14.53404,-1.58965 -2.61938,0.11424 -5.45545,0.37594 -6.30238,0.58155 -1.9918,0.48354 -2.42891,0.31865 -4.46484,-1.68428 -2.2877,-2.25062 -3.72917,-5.37313 -3.81062,-8.25454 -0.0498,-1.76022 0.0504,-2.23221 0.4932,-2.32307 0.4104,-0.0842 0.71053,0.44311 1.14826,2.01752 0.68056,2.44787 2.38735,4.57747 4.62204,5.76703 2.05043,1.09148 6.81779,1.09438 8.8435,0.005 2.83827,-1.52583 4.44102,-3.87828 4.94538,-7.25862 0.13751,-0.92163 0.36878,-1.6757 0.51394,-1.6757 0.33248,0 4.04566,1.67014 8.75824,3.93934 l 3.63423,1.74995 -0.22325,1.65328 c -0.18168,1.34539 -1.58028,7.59686 -1.71614,7.67085 -0.0206,0.0112 -0.87895,-0.25836 -1.90752,-0.59903 z m -19.89776,-7.80882 c -1.71174,-0.41658 -4.03008,-2.90162 -4.36312,-4.67685 -0.54908,-2.92686 2.15135,-6.42361 5.22862,-6.77046 3.86987,-0.43619 7.29558,3.47317 6.29609,7.185 -0.83191,3.08945 -4.06768,5.01526 -7.16159,4.26231 z m 5.29316,-5.97057 c 0.64433,-0.64433 0.5064,-1.86158 -0.2929,-2.58494 -1.54116,-1.39473 -3.77486,0.89331 -2.44106,2.50044 0.5117,0.61656 2.15123,0.66724 2.73396,0.0845 z m -21.80166,3.36907 c -4.97056,-1.34766 -13.85794,-3.27086 -19.40278,-4.1987 -2.03729,-0.34091 -3.90261,-0.77352 -4.14514,-0.96136 -0.47197,-0.36552 -0.61995,-3.63547 -0.17639,-3.89766 0.14552,-0.086 1.85208,0.0618 3.79236,0.32844 11.55668,1.58826 14.51193,2.09533 20.7257,3.55614 l 3.79236,0.89155 v 2.7846 c 0,1.53152 -0.0397,2.76389 -0.0882,2.73859 -0.0485,-0.0253 -2.07257,-0.58401 -4.49791,-1.2416 z m 6.87916,-6.25219 c -1.62304,-0.70025 -9.7547,-2.62117 -14.2875,-3.37508 -4.02146,-0.66887 -8.68191,-1.25229 -13.7336,-1.719241 -2.41518,-0.223249 -2.63979,-0.312346 -2.85897,-1.134131 -0.13083,-0.490517 -0.10738,-1.244579 0.0521,-1.675695 0.26474,-0.715684 0.52294,-0.783844 2.96925,-0.783844 9.16126,0 21.71964,1.674993 29.71113,3.962771 l 2.55796,0.73228 -0.90095,1.18121 c -0.49553,0.64967 -1.06683,1.65703 -1.26956,2.23859 -0.40783,1.16992 -0.68956,1.24201 -2.23986,0.57314 z"
       id="path179" /></g></svg>
